<svg width="14" height="14" viewBox="0 0 14 14" fill="none" xmlns="http://www.w3.org/2000/svg">
<path d="M7.92969 0.382812C8.1849 0.638021 8.3125 0.947917 8.3125 1.3125C8.3125 1.67708 8.1849 1.98698 7.92969 2.24219C7.67448 2.4974 7.36458 2.625 7 2.625C6.63542 2.625 6.32552 2.4974 6.07031 2.24219C5.8151 1.98698 5.6875 1.67708 5.6875 1.3125C5.6875 0.947917 5.8151 0.638021 6.07031 0.382812C6.32552 0.127604 6.63542 0 7 0C7.36458 0 7.67448 0.127604 7.92969 0.382812ZM6.07031 11.7578C6.32552 11.5026 6.63542 11.375 7 11.375C7.36458 11.375 7.67448 11.5026 7.92969 11.7578C8.1849 12.013 8.3125 12.3229 8.3125 12.6875C8.3125 13.0521 8.1849 13.362 7.92969 13.6172C7.67448 13.8724 7.36458 14 7 14C6.63542 14 6.32552 13.8724 6.07031 13.6172C5.8151 13.362 5.6875 13.0521 5.6875 12.6875C5.6875 12.3229 5.8151 12.013 6.07031 11.7578ZM11.7578 6.07031C12.013 5.8151 12.3229 5.6875 12.6875 5.6875C13.0521 5.6875 13.362 5.8151 13.6172 6.07031C13.8724 6.32552 14 6.63542 14 7C14 7.36458 13.8724 7.67448 13.6172 7.92969C13.362 8.1849 13.0521 8.3125 12.6875 8.3125C12.3229 8.3125 12.013 8.1849 11.7578 7.92969C11.5026 7.67448 11.375 7.36458 11.375 7C11.375 6.63542 11.5026 6.32552 11.7578 6.07031ZM2.24219 6.07031C2.4974 6.32552 2.625 6.63542 2.625 7C2.625 7.36458 2.4974 7.67448 2.24219 7.92969C1.98698 8.1849 1.67708 8.3125 1.3125 8.3125C0.947917 8.3125 0.638021 8.1849 0.382812 7.92969C0.127604 7.67448 0 7.36458 0 7C0 6.63542 0.127604 6.32552 0.382812 6.07031C0.638021 5.8151 0.947917 5.6875 1.3125 5.6875C1.67708 5.6875 1.98698 5.8151 2.24219 6.07031ZM2.05078 10.0898C2.30599 9.83464 2.61589 9.70703 2.98047 9.70703C3.34505 9.70703 3.65495 9.83464 3.91016 10.0898C4.16536 10.3451 4.29297 10.6549 4.29297 11.0195C4.29297 11.3841 4.16536 11.694 3.91016 11.9492C3.65495 12.2044 3.34505 12.332 2.98047 12.332C2.61589 12.332 2.30599 12.2044 2.05078 11.9492C1.79557 11.694 1.66797 11.3841 1.66797 11.0195C1.66797 10.6549 1.79557 10.3451 2.05078 10.0898ZM10.0898 10.0898C10.3451 9.83464 10.6549 9.70703 11.0195 9.70703C11.3841 9.70703 11.694 9.83464 11.9492 10.0898C12.2044 10.3451 12.332 10.6549 12.332 11.0195C12.332 11.3841 12.2044 11.694 11.9492 11.9492C11.694 12.2044 11.3841 12.332 11.0195 12.332C10.6549 12.332 10.3451 12.2044 10.0898 11.9492C9.83464 11.694 9.70703 11.3841 9.70703 11.0195C9.70703 10.6549 9.83464 10.3451 10.0898 10.0898ZM2.05078 2.05078C2.30599 1.79557 2.61589 1.66797 2.98047 1.66797C3.34505 1.66797 3.65495 1.79557 3.91016 2.05078C4.16536 2.30599 4.29297 2.61589 4.29297 2.98047C4.29297 3.34505 4.16536 3.65495 3.91016 3.91016C3.65495 4.16536 3.34505 4.29297 2.98047 4.29297C2.61589 4.29297 2.30599 4.16536 2.05078 3.91016C1.79557 3.65495 1.66797 3.34505 1.66797 2.98047C1.66797 2.61589 1.79557 2.30599 2.05078 2.05078Z" fill="#222222"/>
</svg>
